<svg width="12" height="8" viewBox="0 0 12 8" fill="none" xmlns="http://www.w3.org/2000/svg">
<g clip-path="url(#clip0_199_1429)">
<path d="M4.28376 8L0.0965338 3.96133C0.0307641 3.88718 -0.00360325 3.79181 0.000299401 3.69426C0.00420205 3.59671 0.0460873 3.50418 0.117585 3.43515C0.189083 3.36613 0.284927 3.32569 0.385965 3.32192C0.487003 3.31815 0.585792 3.35133 0.662592 3.41483L4.27573 6.90313L11.3374 0.0931984C11.4142 0.0297012 11.513 -0.00347875 11.614 0.000289056C11.7151 0.00405686 11.8109 0.0444949 11.8824 0.113522C11.9539 0.18255 11.9958 0.275082 11.9997 0.372629C12.0036 0.470175 11.9692 0.565552 11.9035 0.639698L4.28376 8Z" fill="#BBBBFF"/>
</g>
<defs>
<clipPath id="clip0_199_1429">
<rect width="12" height="8" fill="white"/>
</clipPath>
</defs>
</svg>
