<svg width="20" height="20" viewBox="0 0 20 20" fill="none" xmlns="http://www.w3.org/2000/svg">
<path fill-rule="evenodd" clip-rule="evenodd" d="M2.31215 2.34064C4.32437 4.46802 6.53375 7.14066 6.8911 7.57294C6.91016 7.59599 6.92394 7.61267 6.93216 7.62256C7.12265 7.85191 7.27991 8.02241 7.39934 8.15188C7.66446 8.4393 7.74314 8.52461 7.58495 8.60295C7.45734 8.66613 7.32571 8.68696 7.19436 8.68696C7.04579 8.68696 6.87841 8.62464 6.75653 8.52394C6.67038 8.45277 6.08092 7.70704 5.27826 6.62218C4.66411 5.79207 4.15014 5.10346 4.13612 5.09193C4.10371 5.06527 4.10426 5.06617 5.21564 6.79834C5.91349 7.88603 6.39085 8.68981 6.39085 8.74124C6.39085 8.84583 6.35808 8.90082 6.20995 9.04474C5.96301 9.28475 5.85261 9.55439 5.77293 10.1124C5.68359 10.7379 5.43239 11.1799 4.73623 11.9361C4.32872 12.3788 4.26204 12.4599 4.15921 12.6384C4.0297 12.8631 3.99408 12.9889 3.97965 13.2727C3.96439 13.5727 3.99411 13.7665 4.09933 14.0533C4.19145 14.3044 4.28759 14.4703 4.5334 14.8019C4.74553 15.088 4.86768 15.3007 4.86768 15.3839C4.86768 15.4502 4.88219 15.4502 5.2109 15.3856C5.99756 15.2308 6.63631 14.9587 6.99556 14.6252C7.2179 14.4187 7.27011 14.3048 7.27179 14.0219C7.27291 13.8368 7.26543 13.7981 7.20802 13.6917C7.11455 13.5184 6.94439 13.3743 6.56935 13.151C6.07795 12.8584 5.86806 12.6228 5.81009 12.2989C5.76253 12.0331 5.81771 11.8455 6.08955 11.3492C6.37092 10.8355 6.44065 10.6166 6.48782 10.0987C6.51828 9.76417 6.56047 9.63225 6.67082 9.52638C6.78591 9.41595 6.88951 9.37854 7.17431 9.3446C7.63864 9.28938 7.9343 9.18474 8.17733 8.98966C8.38815 8.82043 8.47638 8.65736 8.48991 8.41189L8.50019 8.22583L8.38238 8.10618C7.95572 7.67285 2.02642 2 2.00016 2C1.99455 2 2.13495 2.1533 2.31215 2.34064ZM5.10718 13.6121C5.20365 13.4633 5.1524 13.272 4.99103 13.1785C4.83857 13.0902 4.60173 13.1318 4.60173 13.2469C4.60173 13.282 4.62402 13.3076 4.67427 13.3301C4.75886 13.3681 4.765 13.4107 4.69844 13.4978C4.63103 13.5861 4.63647 13.6637 4.71379 13.7163C4.8384 13.8014 5.0148 13.7546 5.10718 13.6121ZM8.01073 5.49703C7.82038 5.47131 7.81235 5.46829 7.90192 5.4563C8.07358 5.4333 8.47891 5.46465 8.75823 5.5225C9.41032 5.65751 10.0037 6.00339 10.637 6.61768L10.8053 6.78087L11.046 6.74716C12.0601 6.6052 13.0918 6.71802 13.9546 7.06523C14.192 7.16076 14.5663 7.35091 14.613 7.39977C14.6279 7.41535 14.6553 7.51559 14.6738 7.62256C14.7379 7.99263 14.7058 8.27629 14.5759 8.48816C14.5052 8.60345 14.5013 8.63999 14.5488 8.73866C14.5867 8.81739 14.6925 8.87566 14.7973 8.87554C15.0117 8.87529 15.2425 8.57335 15.3495 8.15322L15.3919 7.98634L15.4761 8.06937C15.9376 8.52491 16.3002 9.14614 16.3625 9.58832L16.3787 9.7036L16.3011 9.59882C16.1675 9.41848 16.0334 9.29568 15.8616 9.19666C15.5519 9.01816 15.2244 8.95742 14.3573 8.91761C13.574 8.88166 13.1308 8.82339 12.6912 8.69853C11.9433 8.48615 11.5664 8.20328 10.678 7.18803C10.2834 6.73709 10.0396 6.4876 9.79697 6.28667C9.24572 5.83014 8.70408 5.59071 8.01073 5.49703ZM14.7897 6.50387C14.8094 6.2017 14.8565 6.00239 14.951 5.82037C14.9885 5.74833 15.0235 5.68936 15.0289 5.68936C15.0344 5.68936 15.0181 5.74254 14.9927 5.80752C14.924 5.98417 14.9127 6.22578 14.9601 6.50688C15.0202 6.86356 15.0544 6.91503 15.4872 7.30031C15.6901 7.48103 15.9263 7.70895 16.0119 7.8068L16.1675 7.98473L16.0119 7.85757C15.8216 7.70207 15.3839 7.39881 15.2872 7.35546C15.2223 7.32639 15.2127 7.32689 15.1727 7.36156C15.1359 7.39351 15.1281 7.44151 15.123 7.66845C15.115 8.02215 15.0597 8.24916 14.9261 8.47617C14.8539 8.59894 14.8424 8.57274 14.9078 8.43416C14.9567 8.33069 14.9616 8.2852 14.9613 7.9428C14.9605 7.25484 14.8667 7.08945 14.3168 6.80612C14.1776 6.73435 13.948 6.63084 13.8068 6.57608C13.6656 6.52133 13.5535 6.47364 13.5575 6.47008C13.5731 6.45657 14.1094 6.59292 14.3252 6.66523C14.6463 6.77281 14.6992 6.78676 14.7382 6.77378C14.7643 6.76508 14.777 6.69878 14.7897 6.50387ZM7.80671 5.97571C7.75496 6.50685 7.99404 7.21736 8.38047 7.68078C8.68002 8.04001 9.14437 8.31916 9.48718 8.34612C9.71164 8.36377 9.7791 8.30256 9.67755 8.17339C9.53657 7.99403 9.36318 7.71788 9.31728 7.59965C9.28879 7.5262 9.22684 7.30924 9.17962 7.11752C9.01843 6.46297 8.86 6.20807 8.49402 6.01446C8.36066 5.9439 8.07586 5.85156 7.91068 5.82532L7.82273 5.81133L7.80671 5.97571ZM14.321 11.1297C12.5151 10.4964 11.879 9.94661 11.879 9.019C11.879 8.8825 11.8845 8.77081 11.891 8.77081C11.8977 8.77081 11.9675 8.81586 12.0463 8.87093C12.4125 9.12677 12.8226 9.23605 13.9578 9.38027C14.6258 9.46523 15.0017 9.53376 15.3485 9.63399C16.4507 9.9524 17.1327 10.5985 17.2953 11.4787C17.3426 11.7345 17.3149 12.214 17.2383 12.4668C17.1778 12.6665 16.9932 13.0263 16.9442 13.0401C16.9306 13.0439 16.9173 12.9986 16.9139 12.937C16.8953 12.6065 16.7036 12.2847 16.3816 12.0437C16.0155 11.7696 15.5236 11.5515 14.321 11.1297ZM12.966 11.06C12.9913 11.1258 13.0306 11.2755 13.0532 11.3928C13.1978 12.1427 12.746 12.7485 11.867 12.9833C11.7739 13.0081 11.4074 13.0706 11.0524 13.1221C10.3339 13.2263 10.0132 13.3001 9.69104 13.4353C9.46257 13.5312 9.18596 13.6747 9.2024 13.689C9.20769 13.6936 9.25984 13.6828 9.31826 13.6649C9.72453 13.5406 10.1767 13.4763 10.8636 13.4452C11.1362 13.4329 11.4463 13.4132 11.5527 13.4016C12.1647 13.3344 12.5889 13.1724 12.9187 12.88C13.1023 12.7173 13.2117 12.5657 13.2999 12.3519C13.3558 12.2163 13.3633 12.1659 13.3637 11.9257C13.3642 11.6808 13.3574 11.6361 13.2968 11.4855C13.2175 11.288 13.124 11.1399 13.0055 11.0241L12.9199 10.9404L12.966 11.06ZM13.8811 12.6735C13.6411 12.2242 13.586 11.7904 13.7174 11.3859C13.7315 11.3426 13.7541 11.3072 13.7678 11.3072C13.7814 11.3072 13.8379 11.3339 13.8936 11.3665C14.0041 11.4313 14.2259 11.5405 14.8166 11.8211C15.5539 12.1712 15.9742 12.4423 16.26 12.7521C16.5103 13.0233 16.6652 13.3322 16.7397 13.709C16.782 13.9224 16.7573 14.4359 16.6944 14.6507C16.4962 15.3283 16.0355 15.8605 15.3785 16.1711C15.2822 16.2165 15.1958 16.2538 15.1864 16.2541C15.1771 16.2542 15.2122 16.1766 15.2644 16.0814C15.4854 15.6789 15.5106 15.2874 15.3435 14.8517C15.2411 14.5849 15.0325 14.2593 14.6113 13.709C14.1215 13.0693 14.0015 12.899 13.8811 12.6735ZM9.36151 14.1471C8.60198 14.2546 7.76816 14.6047 7.09801 15.0976L6.89849 15.2443L7.07383 15.2682C7.98882 15.3926 8.23521 15.503 8.86989 16.0725C9.23513 16.4002 9.35848 16.4731 9.66143 16.5405C10.1064 16.6394 10.545 16.4576 10.6954 16.1119C10.7627 15.9574 10.7537 15.7016 10.6766 15.5731C10.4931 15.2672 9.95871 15.1684 9.70028 15.3924C9.48503 15.579 9.54774 15.8602 9.81546 15.9085C9.87675 15.9197 9.87501 15.9173 9.79984 15.8877C9.68268 15.8415 9.63178 15.7775 9.63113 15.6757C9.62963 15.437 9.94326 15.303 10.235 15.4176C10.4487 15.5016 10.5335 15.6113 10.5335 15.8037C10.5335 16.0998 10.2441 16.323 9.9073 16.2866C9.72728 16.267 9.50713 16.1667 9.38907 16.0505C9.09203 15.7579 9.20774 15.2962 9.62248 15.1191C9.93821 14.9843 10.3579 15.0175 10.6834 15.2031C11.0573 15.4164 11.2163 15.6114 11.5384 16.2512C11.6432 16.4596 11.7782 16.6941 11.8382 16.7724C12.1433 17.1702 12.5088 17.3653 12.9491 17.3653C13.192 17.3653 13.3746 17.3267 13.6045 17.2267C13.7752 17.1524 14.0173 17.0112 13.9999 16.9961C13.9949 16.9918 13.9241 17.011 13.8425 17.0387C13.3617 17.202 12.873 17.1908 12.5892 17.0098C12.4105 16.8959 12.2663 16.669 12.1922 16.3852C12.1794 16.3361 12.1371 16.1191 12.0981 15.903C11.9995 15.3554 11.9047 15.1092 11.6838 14.8267C11.4577 14.5376 11.0231 14.2951 10.5373 14.1867C10.2341 14.1191 9.68884 14.1008 9.36151 14.1471ZM8.29775 9.91281C8.36335 9.70179 8.57524 9.50055 8.79322 9.44222C8.93183 9.40517 9.21833 9.42883 9.35305 9.48846C9.61411 9.6041 9.80364 9.86744 9.76251 10.0575C9.71235 10.2893 9.28081 10.4748 8.7844 10.4778C8.53085 10.4794 8.43721 10.4497 8.34038 10.3371C8.28045 10.2673 8.25774 10.0416 8.29775 9.91281ZM9.28639 9.5711C9.41658 9.64036 9.45007 9.74275 9.37352 9.83748C9.32079 9.90275 9.15755 9.96477 9.03825 9.96477C8.85903 9.96477 8.66351 9.85391 8.66351 9.75238C8.66351 9.54838 9.03845 9.43918 9.28639 9.5711Z" fill="white"/>
</svg>
