<svg width="24" height="24" viewBox="0 0 24 24" fill="none" xmlns="http://www.w3.org/2000/svg">
<rect width="24" height="24" rx="12" fill="#FF007A"/>
<path fill-rule="evenodd" clip-rule="evenodd" d="M5.3403 4.34627C7.10432 6.50887 9.04119 9.22574 9.35446 9.66518C9.37117 9.68861 9.38325 9.70556 9.39046 9.71561C9.55745 9.94876 9.69532 10.1221 9.80001 10.2537C10.0324 10.5459 10.1014 10.6326 9.96273 10.7122C9.85086 10.7765 9.73546 10.7976 9.62031 10.7976C9.49007 10.7976 9.34333 10.7343 9.23649 10.6319C9.16097 10.5596 8.64422 9.80149 7.94055 8.69867C7.40216 7.85483 6.95159 7.15482 6.93929 7.14311C6.91088 7.116 6.91136 7.11692 7.88566 8.87776C8.49744 9.98345 8.91591 10.8005 8.91591 10.8528C8.91591 10.9591 8.88719 11.015 8.75733 11.1613C8.54085 11.4053 8.44407 11.6794 8.37421 12.2467C8.29589 12.8825 8.07568 13.3318 7.46538 14.1005C7.10814 14.5506 7.04968 14.633 6.95954 14.8145C6.846 15.0429 6.81477 15.1708 6.80212 15.4592C6.78875 15.7642 6.81479 15.9612 6.90704 16.2528C6.98779 16.508 7.07208 16.6766 7.28757 17.0138C7.47354 17.3046 7.58062 17.5208 7.58062 17.6054C7.58062 17.6728 7.59334 17.6728 7.88151 17.6071C8.57113 17.4498 9.1311 17.1732 9.44604 16.8341C9.64095 16.6243 9.68672 16.5084 9.6882 16.2208C9.68917 16.0327 9.68262 15.9934 9.63229 15.8852C9.55035 15.709 9.40117 15.5626 9.0724 15.3356C8.6416 15.0381 8.45761 14.7986 8.40678 14.4693C8.3651 14.1991 8.41346 14.0084 8.65178 13.5039C8.89844 12.9817 8.95957 12.7592 9.00092 12.2328C9.02763 11.8927 9.06462 11.7586 9.16135 11.6509C9.26224 11.5387 9.35306 11.5007 9.60274 11.4662C10.0098 11.41 10.269 11.3036 10.482 11.1053C10.6669 10.9333 10.7442 10.7675 10.7561 10.518L10.7651 10.3289L10.6618 10.2072C10.2878 9.76674 5.08981 4 5.06679 4C5.06188 4 5.18496 4.15583 5.3403 4.34627ZM7.79058 15.8043C7.87515 15.653 7.83022 15.4586 7.68876 15.3635C7.5551 15.2738 7.34747 15.3161 7.34747 15.433C7.34747 15.4687 7.36701 15.4947 7.41106 15.5176C7.48522 15.5562 7.4906 15.5995 7.43225 15.6881C7.37316 15.7778 7.37793 15.8567 7.44571 15.9103C7.55495 15.9967 7.70959 15.9492 7.79058 15.8043ZM10.336 7.55491C10.1691 7.52876 10.1621 7.52569 10.2406 7.5135C10.3911 7.49013 10.7464 7.52199 10.9913 7.5808C11.5629 7.71805 12.0831 8.06965 12.6384 8.6941L12.7859 8.85999L12.9969 8.82573C13.8859 8.68142 14.7903 8.7961 15.5468 9.14906C15.7549 9.24618 16.083 9.43947 16.1239 9.48914C16.137 9.50497 16.161 9.60688 16.1772 9.71561C16.2334 10.0918 16.2053 10.3802 16.0913 10.5955C16.0294 10.7127 16.0259 10.7499 16.0676 10.8502C16.1008 10.9302 16.1936 10.9895 16.2855 10.9893C16.4734 10.9891 16.6757 10.6821 16.7695 10.2551L16.8067 10.0854L16.8805 10.1698C17.2851 10.6329 17.603 11.2644 17.6576 11.7139L17.6718 11.8311L17.6038 11.7246C17.4867 11.5413 17.3691 11.4164 17.2185 11.3158C16.947 11.1343 16.6599 11.0726 15.8997 11.0321C15.2131 10.9956 14.8245 10.9363 14.4392 10.8094C13.7835 10.5935 13.4531 10.3059 12.6743 9.27389C12.3284 8.81549 12.1146 8.56187 11.9019 8.35762C11.4187 7.89353 10.9438 7.65014 10.336 7.55491ZM16.2788 8.57841C16.2961 8.27123 16.3373 8.06863 16.4202 7.8836C16.4531 7.81036 16.4838 7.75041 16.4885 7.75041C16.4933 7.75041 16.479 7.80448 16.4568 7.87054C16.3966 8.05011 16.3866 8.29572 16.4282 8.58147C16.4809 8.94405 16.5109 8.99637 16.8902 9.38803C17.0682 9.57174 17.2752 9.80343 17.3502 9.9029L17.4867 10.0838L17.3502 9.95452C17.1834 9.79644 16.7997 9.48816 16.7149 9.44409C16.6581 9.41454 16.6496 9.41505 16.6146 9.45029C16.5823 9.48277 16.5755 9.53156 16.571 9.76226C16.564 10.1218 16.5155 10.3526 16.3984 10.5833C16.3351 10.7082 16.3251 10.6815 16.3824 10.5406C16.4252 10.4355 16.4295 10.3892 16.4292 10.0412C16.4286 9.34181 16.3463 9.17368 15.8643 8.88566C15.7422 8.8127 15.5409 8.70748 15.4171 8.65181C15.2934 8.59616 15.1951 8.54768 15.1986 8.54406C15.2123 8.53033 15.6824 8.66893 15.8716 8.74244C16.1531 8.8518 16.1995 8.86598 16.2337 8.85278C16.2566 8.84394 16.2677 8.77654 16.2788 8.57841ZM10.1571 8.0415C10.1118 8.58144 10.3214 9.30371 10.6601 9.77479C10.9227 10.14 11.3298 10.4237 11.6303 10.4511C11.8271 10.4691 11.8862 10.4069 11.7972 10.2756C11.6736 10.0932 11.5216 9.81251 11.4814 9.69232C11.4564 9.61765 11.4021 9.3971 11.3607 9.20221C11.2194 8.53683 11.0805 8.27772 10.7597 8.0809C10.6428 8.00917 10.3931 7.91531 10.2483 7.88863L10.1712 7.87441L10.1571 8.0415ZM15.8679 13.2808C14.2848 12.637 13.7272 12.0781 13.7272 11.1352C13.7272 10.9964 13.732 10.8829 13.7377 10.8829C13.7435 10.8829 13.8047 10.9287 13.8738 10.9846C14.1948 11.2447 14.5543 11.3558 15.5496 11.5024C16.1351 11.5888 16.4647 11.6584 16.7687 11.7603C17.735 12.084 18.3328 12.7409 18.4754 13.6356C18.5168 13.8956 18.4925 14.3831 18.4254 14.64C18.3723 14.843 18.2105 15.2088 18.1676 15.2228C18.1557 15.2267 18.144 15.1807 18.141 15.118C18.1247 14.782 17.9566 14.455 17.6744 14.2099C17.3534 13.9313 16.9222 13.7096 15.8679 13.2808ZM14.68 13.21C14.7022 13.2768 14.7367 13.429 14.7565 13.5483C14.8833 14.3105 14.4872 14.9264 13.7166 15.1651C13.635 15.1903 13.3137 15.2538 13.0025 15.3062C12.3726 15.4121 12.0915 15.4871 11.809 15.6245C11.6088 15.722 11.3663 15.868 11.3807 15.8824C11.3853 15.8872 11.431 15.8761 11.4822 15.8579C11.8384 15.7316 12.2348 15.6662 12.837 15.6346C13.076 15.6221 13.3478 15.6021 13.4411 15.5903C13.9776 15.522 14.3494 15.3574 14.6386 15.0601C14.7995 14.8946 14.8954 14.7405 14.9727 14.5232C15.0217 14.3854 15.0284 14.3342 15.0287 14.0899C15.0292 13.8411 15.0232 13.7955 14.9701 13.6424C14.9006 13.4418 14.8186 13.2912 14.7147 13.1734L14.6396 13.0884L14.68 13.21ZM15.4822 14.8501C15.2719 14.3934 15.2236 13.9524 15.3388 13.5412C15.3512 13.4972 15.3709 13.4613 15.3829 13.4613C15.3948 13.4613 15.4444 13.4884 15.4932 13.5215C15.5901 13.5874 15.7845 13.6984 16.3024 13.9836C16.9487 14.3395 17.3172 14.6151 17.5678 14.93C17.7872 15.2057 17.923 15.5198 17.9883 15.9027C18.0254 16.1197 18.0037 16.6417 17.9486 16.8601C17.7748 17.5489 17.371 18.0899 16.795 18.4056C16.7106 18.4518 16.6348 18.4897 16.6266 18.49C16.6184 18.4901 16.6492 18.4112 16.6949 18.3144C16.8887 17.9053 16.9108 17.5073 16.7643 17.0644C16.6746 16.7932 16.4917 16.4622 16.1224 15.9028C15.6931 15.2525 15.5878 15.0794 15.4822 14.8501ZM11.5202 16.3482C10.8543 16.4574 10.1233 16.8133 9.53585 17.3144L9.36094 17.4635L9.51465 17.4878C10.3168 17.6143 10.5328 17.7265 11.0892 18.3054C11.4094 18.6385 11.5175 18.7126 11.7831 18.7811C12.1732 18.8817 12.5577 18.6969 12.6896 18.3454C12.7485 18.1884 12.7406 17.9283 12.673 17.7977C12.5122 17.4868 12.0437 17.3863 11.8171 17.614C11.6284 17.8038 11.6834 18.0896 11.9181 18.1387C11.9718 18.15 11.9703 18.1476 11.9044 18.1175C11.8017 18.0706 11.7571 18.0056 11.7565 17.902C11.7552 17.6594 12.0302 17.5231 12.2859 17.6396C12.4732 17.7251 12.5476 17.8366 12.5476 18.0321C12.5476 18.3332 12.2939 18.5601 11.9986 18.523C11.8408 18.5031 11.6478 18.4012 11.5443 18.283C11.2839 17.9856 11.3854 17.5163 11.7489 17.3362C12.0257 17.1992 12.3937 17.2329 12.679 17.4216C13.0068 17.6385 13.1462 17.8367 13.4285 18.4871C13.5205 18.6989 13.6387 18.9373 13.6913 19.0169C13.9588 19.4213 14.2793 19.6196 14.6652 19.6196C14.8781 19.6196 15.0383 19.5803 15.2398 19.4787C15.3895 19.4032 15.6017 19.2597 15.5864 19.2443C15.5821 19.2399 15.52 19.2594 15.4484 19.2876C15.027 19.4536 14.5985 19.4422 14.3497 19.2583C14.193 19.1425 14.0667 18.9118 14.0017 18.6233C13.9905 18.5733 13.9534 18.3528 13.9192 18.1331C13.8327 17.5764 13.7497 17.3261 13.556 17.0389C13.3578 16.7451 12.9768 16.4985 12.5509 16.3884C12.2852 16.3197 11.8071 16.301 11.5202 16.3482ZM10.5876 12.0438C10.6451 11.8293 10.8309 11.6247 11.022 11.5654C11.1435 11.5277 11.3946 11.5518 11.5127 11.6124C11.7416 11.7299 11.9078 11.9976 11.8717 12.1909C11.8277 12.4265 11.4494 12.6151 11.0142 12.6182C10.792 12.6197 10.7099 12.5895 10.625 12.4751C10.5724 12.4042 10.5525 12.1746 10.5876 12.0438ZM11.4543 11.6964C11.5684 11.7668 11.5978 11.8709 11.5307 11.9672C11.4845 12.0335 11.3414 12.0966 11.2368 12.0966C11.0797 12.0966 10.9083 11.9839 10.9083 11.8807C10.9083 11.6733 11.2369 11.5623 11.4543 11.6964Z" fill="white"/>
</svg>
