<svg width="141" height="40" viewBox="0 0 141 40" fill="none" xmlns="http://www.w3.org/2000/svg">
<path d="M59.5619 18.6865V14.6525H63.9544C67.7708 14.6525 70.1711 12.4566 70.1711 8.66135C70.1711 4.86612 67.7708 2.69402 63.9544 2.69402H55.0494V18.6865H59.5619ZM63.4504 6.72793C65.0345 6.72793 65.6826 7.03823 65.6826 8.66135C65.6826 10.3083 65.0345 10.6186 63.4504 10.6186H59.5619V6.72793H63.4504Z" fill="white"/>
<path d="M75.6418 18.6865V13.2443H77.49C79.2422 13.2443 79.7223 13.5784 80.2983 14.7719L82.2185 18.6865H87.4271L85.4349 14.6764C84.8348 13.4591 84.3068 12.6714 82.6506 12.2417V12.0031C85.7229 11.6211 86.9951 10.1174 86.9951 7.58723C86.9951 4.46035 84.7628 2.69402 80.5144 2.69402H71.1293V18.6865H75.6418ZM75.6418 6.72793H80.4664C81.7865 6.72793 82.2666 7.03823 82.2666 8.30331C82.2666 9.66386 81.7865 9.90255 80.4664 9.90255H75.6418V6.72793Z" fill="white"/>
<path d="M96.8118 18.9252C102.548 18.9252 105.813 15.6789 105.813 10.6902C105.813 5.70155 102.548 2.45532 96.8118 2.45532C91.2192 2.45532 87.9068 5.70155 87.9068 10.6902C87.9068 15.6789 91.2192 18.9252 96.8118 18.9252ZM96.8118 14.6287C93.5474 14.6287 92.7073 13.8649 92.7073 10.6902C92.7073 7.51562 93.5474 6.7518 96.8118 6.7518C100.076 6.7518 101.012 7.51562 101.012 10.6902C101.012 13.8649 100.076 14.6287 96.8118 14.6287Z" fill="white"/>
<path d="M115.681 18.9252C121.418 18.9252 124.682 15.6789 124.682 10.6902C124.682 5.70155 121.418 2.45532 115.681 2.45532C110.088 2.45532 106.776 5.70155 106.776 10.6902C106.776 15.6789 110.088 18.9252 115.681 18.9252ZM115.681 14.6287C112.417 14.6287 111.577 13.8649 111.577 10.6902C111.577 7.51562 112.417 6.7518 115.681 6.7518C118.945 6.7518 119.881 7.51562 119.881 10.6902C119.881 13.8649 118.945 14.6287 115.681 14.6287Z" fill="white"/>
<path d="M130.398 18.6865V13.1249H139.903V9.11486H130.398V6.72793H140.263V2.69402H125.885V18.6865H130.398Z" fill="white"/>
<path d="M59.2212 38.0414V32.0046L59.0658 29.5637H59.3543L60.1975 32.0046L62.4165 37.1697H67.4758L69.6949 32.0046L70.5381 29.5637H70.8265L70.6712 32.0046V38.0414H74.8429V23.4396H69.1845L66.5882 29.4983L65.1903 33.2686H64.9018L63.4373 29.4983L60.7079 23.4396H55.0494V38.0414H59.2212Z" fill="white"/>
<path d="M89.3807 38.0414V34.3583H80.3494V32.5276H89.0478V28.8663H80.3494V27.1228H89.3807V23.4396H76.1776V38.0414H89.3807Z" fill="white"/>
<path d="M94.7382 38.0414V32.0046L94.5829 29.5637H94.8713L95.7146 32.0046L97.9336 37.1697H102.993L105.212 32.0046L106.055 29.5637H106.344L106.188 32.0046V38.0414H110.36V23.4396H104.702L102.105 29.4983L100.707 33.2686H100.419L98.9543 29.4983L96.2249 23.4396H90.5665V38.0414H94.7382Z" fill="white"/>
<path d="M124.898 38.0414V34.3583H115.866V32.5276H124.565V28.8663H115.866V27.1228H124.898V23.4396H111.695V38.0414H124.898Z" fill="white"/>
<path d="M133.295 38.2594C138.31 38.2594 140.263 36.0364 140.263 33.5301C140.263 31.6559 139.287 29.8252 135.647 29.3021L130.987 28.6265C130.189 28.5176 129.922 28.2996 129.922 27.8419C129.922 27.2099 130.388 26.9266 132.519 26.9266C135.315 26.9266 135.781 27.2753 135.781 28.3214V28.6483H139.952V28.5176C139.952 25.2485 137.689 23.2217 132.962 23.2217C127.592 23.2217 125.751 25.6626 125.751 27.9945C125.751 30.3482 127.149 31.8084 129.922 32.1789L134.582 32.7891C135.803 32.9417 136.091 33.1596 136.091 33.6827C136.091 34.3365 135.825 34.5326 133.295 34.5326C130.499 34.5326 130.144 34.2711 130.144 33.2904V32.8327H125.973V32.9635C125.973 36.6684 128.746 38.2594 133.295 38.2594Z" fill="white"/>
<path d="M69.6486 25.737H70.1486V25.237V22.3517H75.7663H76.2663V21.8517V19.4108V18.9108H75.7663H70.1486V18.4579H75.7663H76.2663V17.9579V15.5025V15.0025H75.7663H66.8503H66.3503V15.5025V18.5597C66.091 17.6999 65.6342 16.9526 64.9855 16.3565C63.9195 15.3771 62.3912 14.8572 60.5223 14.8572C58.695 14.8572 57.1823 15.3788 56.1216 16.3572C55.0565 17.3396 54.5 18.7342 54.5 20.3697C54.5 22.0053 55.0565 23.3999 56.1216 24.3823C57.1823 25.3607 58.695 25.8823 60.5223 25.8823C62.3912 25.8823 63.9195 25.3623 64.9855 24.3829C65.6342 23.7869 66.091 23.0396 66.3503 22.1798V25.237V25.737H66.8503H69.6486ZM60.5223 22.267C59.5016 22.267 59.0566 22.1375 58.8317 21.9275C58.6187 21.7288 58.477 21.3346 58.477 20.3697C58.477 19.4049 58.6187 19.0107 58.8317 18.8119C59.0566 18.602 59.5016 18.4724 60.5223 18.4724C61.5404 18.4724 62.0076 18.6009 62.2496 18.8184C62.4738 19.0197 62.6271 19.4151 62.6271 20.3697C62.6271 21.3244 62.4738 21.7197 62.2496 21.9211C62.0076 22.1386 61.5404 22.267 60.5223 22.267Z" fill="white" stroke="#0F0F12"/>
<path d="M0 14.8472V38.3111C0 39.2436 0.746214 39.9996 1.66652 39.9996H7.59271V12.8388C7.59271 12.2475 8.24001 11.892 8.72904 12.2147L15.5558 16.7185V40H24.2595V7.21017C24.2595 6.61888 24.9068 6.2633 25.3958 6.58601L32.2225 11.0898V40H38.3335C39.2538 40 40 39.2439 40 38.3115V1.69015C40 0.524413 38.8617 -0.290961 37.7768 0.0982858L1.11022 13.2557C0.444721 13.4946 0 14.1316 0 14.8472Z" fill="url(#paint0_linear_153_1827)"/>
<defs>
<linearGradient id="paint0_linear_153_1827" x1="40" y1="-4.85461e-07" x2="-1.47925" y2="50.4696" gradientUnits="userSpaceOnUse">
<stop stop-color="#573CFF"/>
<stop offset="1" stop-color="#82ACFF"/>
</linearGradient>
</defs>
</svg>
